<svg xmlns="http://www.w3.org/2000/svg" viewBox="0 0 102.87 191">
  <title>Asset 21</title>
  <g id="Layer_2" data-name="Layer 2">
    <g id="upper_left_1st_premolar" data-name="upper left 1st premolar">
      <g id="with__procedure">
        <path d="M40,189.89v-6.07h23v6.07a6.74,6.74,0,0,1-.09,1.11H40A8.05,8.05,0,0,1,40,189.89Z" fill="#999"/>
        <polygon points="39.6 163.59 35.38 163.59 35.38 168.64 39.6 168.64 39.6 178.76 63.21 178.76 63.21 168.64 67.42 168.64 67.42 163.59 63.21 163.59 39.6 163.59" fill="#999"/>
        <polygon points="35.49 141.66 28.74 141.66 28.74 146.72 35.49 146.72 35.49 158.53 67.53 158.53 67.53 146.72 74.27 146.72 74.27 141.66 67.53 141.66 35.49 141.66" fill="#999"/>
        <polygon points="28.74 119.74 23.68 119.74 23.68 124.8 28.74 124.8 28.74 136.6 74.27 136.6 74.27 124.8 79.33 124.8 79.33 119.74 74.27 119.74 28.74 119.74" fill="#999"/>
        <polygon points="23.68 97.81 18.62 97.81 18.62 102.87 23.68 102.87 23.68 114.68 79.33 114.68 79.33 102.87 84.39 102.87 84.39 97.81 79.33 97.81 23.68 97.81" fill="#999"/>
        <polygon points="11.88 53.97 3.44 53.97 3.44 59.02 11.88 59.02 11.88 70.83 91.14 70.83 91.14 59.02 99.57 59.02 99.57 53.97 91.14 53.97 11.88 53.97" fill="#999"/>
        <polygon points="18.41 75.89 11.66 75.89 11.66 80.95 18.41 80.95 18.41 92.75 84.18 92.75 84.18 80.95 90.93 80.95 90.93 75.89 84.18 75.89 18.41 75.89" fill="#999"/>
        <polygon points="10.12 48.91 16.86 48.91 86.01 48.91 92.75 48.91 102.87 48.91 102.87 43.85 92.75 43.85 92.75 32.04 86.01 32.04 86.01 0 16.86 0 16.86 32.04 10.12 32.04 10.12 43.85 0 43.85 0 48.91 10.12 48.91" fill="#999"/>
      </g>
    </g>
  </g>
</svg>
