<svg xmlns="http://www.w3.org/2000/svg" xmlns:xlink="http://www.w3.org/1999/xlink" viewBox="0 0 153.61 434.12">
  <defs>
    <linearGradient id="bones-gradient" x1="0%" y1="0%" x2="50%" y2="100%">
      <stop offset="0%" style="stop-color:blue;" />
      <stop offset="100%" style="stop-color:#FF0015;" />
    </linearGradient>
  </defs>
  <title>Asset 20</title>
  <g id="Layer_2" data-name="Layer 2">
    <g id="upper_right_molar" data-name="upper right molar">
      <g>
        <path id="tooth__base" d="M126.32,313.47c-13.59,7-25.48,3.48-35.67-1.74S78.76,282.1,78.76,282.1A138.9,138.9,0,0,1,72,297.79c-5.1,10.45-20.38,15.68-44.17,15.68S7.41,301.27,4,296.05s0-38.34,0-50.53,20.38-33.11,20.38-33.11l.86-.87s-10.59-63.69-3.8-100.28c1.66-8.94,11.43-63.09,12-72.51.88-13.7,19.1-36.18,18.36-13.27C51.23,44,55.35,81.07,58.75,79.79c4.51-1.71,4.67-4.5,5.72-7.72.89-2.73,6.76-18.8,6.92-33.63.15-13.85-1.46-25.2-3.31-30.55C65.19-.47,81,.68,86.73,12.83c6.59,14,7.06,29,19,53.38s23.19,77.38,24.89,105.25c1.68,27.61-2.44,43.87-2.52,44.19,1,1,1.92,2.24,3.37,3.73,5.09,5.23,13.59,15.68,18.68,38.33S139.91,306.5,126.32,313.47Z" fill="none" stroke="gray" stroke-miterlimit="10" stroke-width="5"/>
        <path id="root__base" d="M128.05,215.64c-2.55-2.62-5.84-4.22-20.42-6.71-20.38-3.49-32.27-5.23-42.46-10.46C60.44,196.05,51.72,197,43,200.12c-9.76,3.49-17.81,11.48-17.75,11.42s-10.59-63.69-3.8-100.28c1.66-8.93,11.43-63.09,12-72.51.88-13.69,19.1-36.18,18.36-13.27-.61,18.51,3.51,55.6,6.91,54.31,4.51-1.71,4.67-4.5,5.72-7.72.89-2.73,6.76-18.8,6.92-33.63.15-13.85-1.46-25.2-3.31-30.55C65.19-.46,81,.68,86.73,12.83c6.59,14,7.06,29,19,53.38s23.19,77.38,24.89,105.26C132.24,199,128.17,215.19,128.05,215.64Z" fill="none" stroke="gray" stroke-miterlimit="10" stroke-width="5"/>
        <path id="crown__base" d="M24.4,212.41S4,233.32,4,245.52s-3.4,45.3,0,50.53,0,17.42,23.78,17.42S66.86,308.24,72,297.79a139.42,139.42,0,0,0,6.8-15.68s1.69,24.39,11.89,29.62,22.08,8.71,35.67,1.74,28.88-33.11,23.78-55.76-13.59-33.1-18.68-38.33-3.4-7-23.79-10.46-32.27-5.22-42.46-10.45S34.59,202,24.4,212.41Z" stroke="gray" stroke-miterlimit="10" stroke-width="5" fill="url(#bones-gradient)"/>
        <path id="crown__line" d="M59,233s15.57,19.32,20.25,49.69c0,0,15.57-41.41,18.68-41.41" fill="none" stroke="gray" stroke-linecap="round" stroke-linejoin="round" stroke-width="5"/>
        <g>
          <ellipse cx="77.21" cy="402.03" rx="31.29" ry="31.58" fill="#0071bc" stroke="gray" stroke-miterlimit="10"/>
          <text transform="translate(66.34 413.25)" font-size="33" fill="#fff" stroke="gray" stroke-miterlimit="10" font-family="Arial-BoldMT, Arial" font-weight="700">1</text>
        </g>
      </g>
    </g>
  </g>
</svg>
