<?xml version="1.0" encoding="utf-8"?>
<!-- Generator: Adobe Illustrator 23.0.1, SVG Export Plug-In . SVG Version: 6.00 Build 0)  -->
<svg version="1.1" id="Capa_1" xmlns="http://www.w3.org/2000/svg" xmlns:xlink="http://www.w3.org/1999/xlink" x="0px" y="0px"
	 viewBox="0 0 198 387.8" style="enable-background:new 0 0 198 387.8;" xml:space="preserve">
<style type="text/css">
	.st0{fill:#FFFFFF;}
</style>
<path class="st0" d="M0.4,318.7c0.3,18.2,26.6,37.6,37.9,45.1c17.4,11.6,42.5,24,60.6,24l0,0c18.2,0,43.4-12.4,60.8-24
	c11.4-7.6,37.9-27.1,38.1-45.3c0.2-4.6,2.8-67.2-32.3-104.5c-1.6-1.7-3.3-3.3-4.9-4.8v-9.1c0-27.5-8.1-74.6-20.6-120.1
	c-6-21.8-12.3-40.5-18.3-54C113.7,7.8,107,0,99.3,0S84.8,7.8,76.7,26.1c-6,13.6-12.4,32.3-18.5,54.2
	c-12.7,45.6-20.9,92.9-20.9,120.4v9C-5.2,247.3-0.1,312.9,0.4,318.7z M69.6,87.9c13.1-48.5,24.8-70.8,29.7-74.6
	c4.9,3.8,16.4,26.2,29.3,74.5c11.4,42.7,18.9,86.5,19,111.8c-13.7-8.1-29.9-12.2-48.4-12.2c-9.6,0-18.7,1.2-27.1,3.5
	c-3.5,0.9-5.5,4.5-4.6,8s4.5,5.5,8,4.6c5.4-1.5,11.2-2.4,17.2-2.8V237c0,3.6,2.9,6.5,6.5,6.5s6.5-2.9,6.5-6.5v-36.3
	c17,1.1,31.5,6.3,43.3,15.7c0.6,0.8,1.4,1.4,2.2,1.9c1.7,1.5,3.3,3,4.9,4.7c31.9,33.7,28.9,94.4,28.8,95c0,0.1,0,0.2,0,0.4
	c0,6.4-10.1,20-32.3,34.6c-19.7,13-41.2,21.8-53.6,21.8l0,0c-12.4,0-33.9-8.8-53.4-21.8c-22.1-14.7-32.1-28.2-32.1-34.6
	c0-0.2,0-0.4,0-0.7c-0.1-0.7-6.3-66.4,34.7-100.1c1.9-1.6,2.7-4,2.3-6.2v-10.7C50.3,175.3,57.9,131,69.6,87.9z"/>
</svg>
