<svg id="Capa_1" enable-background="new 0 0 512 512" height="512" viewBox="0 0 512 512" width="512" xmlns="http://www.w3.org/2000/svg">
    <g>
        <path d="m271.299 98.859c-14.443 0-28.458 3.402-41.719 10.134-13.261-6.732-27.276-10.134-41.719-10.134-51.761 0-93.867 42.106-93.867 93.867 0 23.334 7.995 42.638 16.459 62.336 11.845 27.551 25.259 59.474 25.259 116.359 0 34.508 28.071 62.578 62.578 62.578h10.43v-10.43c0-12.12.621-24.74 1.854-37.512v.01c4.329-44.734 13.76-70.75 19.006-76.973 8.729 9.615 20.859 59.627 20.859 114.475v10.431h10.43c34.508 0 62.578-28.07 62.578-62.578 0-56.854 13.424-88.838 25.28-116.451 8.454-19.708 16.439-39.012 16.439-62.245 0-51.761-42.106-93.867-93.867-93.867z" fill="#e9f2f2"/>
        <path d="m250.44 434h10.43c34.508 0 62.578-28.07 62.578-62.578 0-56.854 13.424-88.838 25.28-116.451 8.454-19.708 16.439-39.012 16.439-62.245 0-51.761-42.106-93.867-93.867-93.867-14.443 0-28.458 3.402-41.719 10.134v200.102c8.729 9.615 20.859 59.627 20.859 114.475z" fill="#d5e5e5"/>
        <path d="m398.655 127.073c-14.881-7.435-27.164-15.502-34.589-30.372l-9.33-18.7-9.33 18.7c-7.425 14.87-19.708 22.937-34.589 30.372l-18.67 9.319 18.67 9.34c14.881 7.435 27.164 19.719 34.589 34.589l9.33 18.68 9.33-18.68c7.425-14.87 19.708-27.154 34.589-34.589l19.365-9.34z" fill="#f7e0ba"/>
        <path d="m398.655 145.732 19.365-9.34-19.365-9.319c-14.881-7.435-27.164-15.502-34.589-30.372l-9.33-18.7v121.001l9.33-18.68c7.425-14.871 19.709-27.155 34.589-34.59z" fill="#efbeaa"/>
    </g>
</svg>