<?xml version="1.0" encoding="utf-8"?>
<!-- Generator: Adobe Illustrator 23.0.1, SVG Export Plug-In . SVG Version: 6.00 Build 0)  -->
<svg version="1.1" id="Capa_1" xmlns="http://www.w3.org/2000/svg" xmlns:xlink="http://www.w3.org/1999/xlink" x="0px" y="0px"
	 viewBox="0 0 512 512" style="enable-background:new 0 0 512 512;" xml:space="preserve">
<style type="text/css">
	.st0{fill:#303030;}
	.st1{fill:#222222;}
</style>
<rect class="st0" width="512" height="512"/>
<path class="st1" d="M413.5,392l-77.9-19.4l-4.5-18c53.8-9.1,81.4-25.2,82.6-25.8c2.9-1.7,4.7-4.8,5-8.1c0.2-3.3-1.2-6.6-3.9-8.7
	c-0.4-0.3-36.7-30.3-36.7-134.3c0-87.7-20.5-132.2-61-132.2h-6C296.4,31.2,285.5,25,256,25c-38.2,0-122,38.4-122,152.5
	c0,104-36.3,134-36.6,134.2c-2.7,2-4.2,5.2-4.1,8.7c0.2,3.4,2,6.5,5,8.2c1.2,0.8,28.6,16.9,82.6,25.9l-4.5,17.9L98.5,392
	C47.6,404.6,12,450.3,12,502.8c0,5.6,4.6,10.2,10.2,10.2h467.7c5.6,0,10.2-4.6,10.2-10.2C500,450.3,464.5,404.6,413.5,392z"/>
</svg>
