<?xml version="1.0" encoding="utf-8"?>
<!-- Generator: Adobe Illustrator 23.0.1, SVG Export Plug-In . SVG Version: 6.00 Build 0)  -->
<svg version="1.1" id="Capa_1" xmlns="http://www.w3.org/2000/svg" xmlns:xlink="http://www.w3.org/1999/xlink" x="0px" y="0px"
	 viewBox="0 0 512 512" style="enable-background:new 0 0 512 512;" xml:space="preserve">
<style type="text/css">
	.st0{fill:#303030;}
	.st1{fill:#222222;}
</style>
<rect class="st0" width="512" height="512"/>
<path class="st1" d="M421.2,385l-81.7-20.4l-4.7-18.9c56.4-9.5,85.4-26.4,86.7-27.1c3-1.8,4.9-5,5.2-8.5c0.2-3.5-1.3-6.9-4.1-9.1
	c-0.4-0.3-38.5-31.8-38.5-140.9c0-92-21.5-138.7-64-138.7h-6.3C298.4,6.5,286.9,0,256,0c-40.1,0-128,40.3-128,160
	c0,109.1-38.1,140.6-38.4,140.8c-2.8,2.1-4.4,5.5-4.3,9.1c0.2,3.6,2.1,6.8,5.2,8.6c1.3,0.8,30,17.7,86.7,27.2l-4.7,18.8L90.8,385
	C37.3,398.3,0,446.2,0,501.3c0,5.9,4.8,10.7,10.7,10.7h490.7c5.9,0,10.7-4.8,10.7-10.7C512,446.2,474.7,398.3,421.2,385z"/>
</svg>
