<?xml version="1.0" encoding="utf-8"?>
<!-- Generator: Adobe Illustrator 23.0.1, SVG Export Plug-In . SVG Version: 6.00 Build 0)  -->
<svg version="1.1" id="Capa_1" xmlns="http://www.w3.org/2000/svg" xmlns:xlink="http://www.w3.org/1999/xlink" x="0px" y="0px"
	 viewBox="0 0 512 512" style="enable-background:new 0 0 512 512;" xml:space="preserve">
<style type="text/css">
	.st0{fill:#303030;}
	.st1{fill:#222222;}
</style>
<rect class="st0" width="512" height="512"/>
<path class="st1" d="M421.2,385l-81.7-20.4l-7-27.8c21.9-21.7,36.8-51.4,41.3-81.9c12.1-3.4,21.5-13.8,23.1-26.8l5.3-42.7
	c1.1-9-1.6-18.1-7.6-24.9c-3.5-4-7.9-7-12.8-8.9l2-40.2l8-8c12-12.8,22-34.7,1.2-66.5C376.9,12.4,349.7,0,312.1,0
	c-14.8,0-49,0-80.9,21.4C140.4,23.3,128,65.5,128,106.7c0,9.6,2.3,31.1,3.9,44.2c-5.5,1.7-10.5,4.9-14.3,9.3
	c-6.1,6.9-8.9,16-7.8,25.2l5.3,42.7c1.7,13.9,12.3,24.9,25.7,27.5c4.4,29.3,18.6,58.1,39.2,79.4l-7.4,29.7L90.8,385
	C37.3,398.3,0,446.2,0,501.3c0,5.9,4.8,10.7,10.7,10.7h490.7c5.9,0,10.7-4.8,10.7-10.7C512,446.2,474.7,398.3,421.2,385z"/>
</svg>
