<?xml version="1.0" encoding="utf-8"?>
<!-- Generator: Adobe Illustrator 23.0.1, SVG Export Plug-In . SVG Version: 6.00 Build 0)  -->
<svg version="1.1" id="Capa_1" xmlns="http://www.w3.org/2000/svg" xmlns:xlink="http://www.w3.org/1999/xlink" x="0px" y="0px"
	 viewBox="0 0 512 512" style="enable-background:new 0 0 512 512;" xml:space="preserve">
<style type="text/css">
	.st0{fill:#303030;}
	.st1{fill:#222222;}
</style>
<rect class="st0" width="512" height="512"/>
<path class="st1" d="M413.5,390.9l-77.9-19.4l-6.7-26.5c20.9-20.7,35.1-49,39.4-78.1c11.5-3.2,20.5-13.2,22-25.5l5.1-40.7
	c1-8.6-1.5-17.3-7.2-23.7c-3.3-3.8-7.5-6.7-12.2-8.5l1.9-38.3l7.6-7.6c11.4-12.2,21-33.1,1.1-63.4C371.2,35.8,345.3,24,309.5,24
	c-14.1,0-46.7,0-77.1,20.4c-86.5,1.8-98.4,42-98.4,81.3c0,9.2,2.2,29.6,3.7,42.1c-5.2,1.6-10,4.7-13.6,8.9c-5.8,6.6-8.5,15.3-7.4,24
	l5.1,40.7c1.6,13.2,11.7,23.7,24.5,26.2c4.2,27.9,17.7,55.4,37.4,75.7l-7.1,28.3l-78,19.3C47.6,403.6,12,449.3,12,501.8
	c0,5.6,4.6,10.2,10.2,10.2h467.7c5.6,0,10.2-4.6,10.2-10.2C500,449.3,464.5,403.6,413.5,390.9z"/>
</svg>
