<svg xmlns="http://www.w3.org/2000/svg" viewBox="0 0 153.61 396.25">
  <title>upper right molar</title>
  <g id="Layer_2" data-name="Layer 2">
    <g id="upper_right_molar" data-name="upper right molar">
      <g>
        <path id="tooth__base" d="M126.32,389.85c-13.59,7-25.48,3.49-35.67-1.74s-11.89-29.62-11.89-29.62A138.43,138.43,0,0,1,72,374.17c-5.1,10.45-20.38,15.68-44.17,15.68S7.41,377.65,4,372.43,4,334.1,4,321.9s20.38-33.11,20.38-33.11l.86-.87s-10.59-63.69-3.8-100.28c1.66-8.93,11.43-63.09,12-72.51.88-13.69,19.1-36.18,18.36-13.27-.61,18.51,3.51,55.6,6.91,54.31,4.51-1.71,4.67-4.5,5.72-7.72.89-2.73,6.76-18.8,6.92-33.63.15-13.85-1.46-25.2-3.31-30.55-2.89-8.35,13-7.21,18.65,4.94,6.59,14,7.06,29,19,53.38S128.87,220,130.57,247.85c1.68,27.6-2.44,43.86-2.52,44.18,1,1,1.92,2.24,3.37,3.73C136.51,301,145,311.44,150.1,334.1S139.91,382.88,126.32,389.85Z" fill="none" stroke="gray" stroke-miterlimit="10" stroke-width="5"/>
        <path id="root__base" d="M126.32,389.85c-13.59,7-25.48,3.49-35.67-1.74s-11.89-29.62-11.89-29.62A138.43,138.43,0,0,1,72,374.17c-5.1,10.45-20.38,15.68-44.17,15.68S7.41,377.65,4,372.43,4,334.1,4,321.9s20.38-33.11,20.38-33.11l.86-.87s-10.59-63.69-3.8-100.28c1.66-8.93,11.43-63.09,12-72.51.88-13.69,19.1-36.18,18.36-13.27-.61,18.51,3.51,55.6,6.91,54.31,4.51-1.71,4.67-4.5,5.72-7.72.89-2.73,6.76-18.8,6.92-33.63.15-13.85-1.46-25.2-3.31-30.55-2.89-8.35,13-7.21,18.65,4.94,6.59,14,7.06,29,19,53.38S128.87,220,130.57,247.85c1.68,27.6-2.44,43.86-2.52,44.18,1,1,1.92,2.24,3.37,3.73C136.51,301,145,311.44,150.1,334.1S139.91,382.88,126.32,389.85Z" fill="none" stroke="gray" stroke-miterlimit="10" stroke-width="5"/>
        <path id="crown__base" d="M24.4,288.79S4,309.7,4,321.9s-3.4,45.3,0,50.53,0,17.42,23.78,17.42S66.86,384.62,72,374.17a138.43,138.43,0,0,0,6.8-15.68s1.69,24.39,11.89,29.62,22.08,8.71,35.67,1.74,28.88-33.1,23.78-55.76-13.59-33.1-18.68-38.33-3.4-7-23.79-10.45-32.27-5.23-42.46-10.46S34.59,278.34,24.4,288.79Z" fill="none" stroke="gray" stroke-linecap="round" stroke-linejoin="round" stroke-width="5"/>
        <path id="crown__line" d="M59,309.42s15.57,19.32,20.25,49.69c0,0,15.57-41.41,18.68-41.41" fill="none" stroke="gray" stroke-linecap="round" stroke-linejoin="round" stroke-width="5"/>
        <g>
          <circle id="circle__bg" cx="150" cy="25" r="25" fill="#0071bc"/>
          <text transform="translate(66.86 33.78)" font-size="36" fill="#fff" font-family="Calibri-Bold, Calibri" font-weight="700">1</text>
        </g>
      </g>
    </g>
  </g>
</svg>
