<svg xmlns="http://www.w3.org/2000/svg" viewBox="0 0 108.85 394">
  <title>upper left 1st premolar</title>
  <g id="Layer_2" data-name="Layer 2">
    <g id="upper_left_1st_premolar" data-name="upper left 1st premolar">
      <g>
        <g id="with__procedure">
          <path d="M63.82,15.18h3V9.11C66.85,4.08,61.56,0,55,0s-11.8,4.08-11.8,9.11v6.07H63.82Z" fill="#999"/>
          <polygon points="67.58 35.41 71.8 35.41 71.8 30.36 67.58 30.36 67.58 20.24 43.98 20.24 43.98 30.36 39.76 30.36 39.76 35.41 43.98 35.41 67.58 35.41" fill="#999"/>
          <polygon points="71.7 57.34 78.44 57.34 78.44 52.28 71.7 52.28 71.7 40.48 39.65 40.48 39.65 52.28 32.91 52.28 32.91 57.34 39.65 57.34 71.7 57.34" fill="#999"/>
          <polygon points="78.44 79.26 83.5 79.26 83.5 74.2 78.44 74.2 78.44 62.4 32.91 62.4 32.91 74.2 27.85 74.2 27.85 79.26 32.91 79.26 78.44 79.26" fill="#999"/>
          <polygon points="83.5 101.19 88.56 101.19 88.56 96.13 83.5 96.13 83.5 84.32 27.85 84.32 27.85 96.13 22.79 96.13 22.79 101.19 27.85 101.19 83.5 101.19" fill="#999"/>
          <polygon points="95.31 145.03 103.74 145.03 103.74 139.97 95.31 139.97 95.31 128.17 16.04 128.17 16.04 139.97 7.61 139.97 7.61 145.03 16.04 145.03 95.31 145.03" fill="#999"/>
          <polygon points="88.77 123.11 95.52 123.11 95.52 118.05 88.77 118.05 88.77 106.25 23 106.25 23 118.05 16.25 118.05 16.25 123.11 23 123.11 88.77 123.11" fill="#999"/>
          <polygon points="97.06 150.09 90.32 150.09 21.17 150.09 14.43 150.09 4.31 150.09 4.31 155.15 14.43 155.15 14.43 166.96 21.17 166.96 21.17 199 90.32 199 90.32 166.96 97.06 166.96 97.06 155.15 107.18 155.15 107.18 150.09 97.06 150.09" fill="#999"/>
        </g>
        <path id="crown__base" d="M86.43,171.49s23.1,39.1,19.54,65.76-19.54,37.32-19.54,37.32-21.33-3.56-24.89,0-23.1,8.88-40.87-14.22S-6,221.25,13.56,194.6s28.44-30.22,33.77-32S82.87,164.38,86.43,171.49Z" fill="none" stroke="#fff" stroke-miterlimit="10" stroke-width="5"/>
        <g>
          <ellipse cx="52.33" cy="362.42" rx="31.29" ry="31.58" fill="#0071bc"/>
          <text transform="translate(32.29 373.64)" font-size="33" fill="#fff" font-family="Arial-BoldMT, Arial" font-weight="700">12</text>
        </g>
      </g>
    </g>
  </g>
</svg>
